<?xml version="1.0" standalone="no"?>
<!DOCTYPE svg PUBLIC "-//W3C//DTD SVG 20010904//EN"
 "http://www.w3.org/TR/2001/REC-SVG-20010904/DTD/svg10.dtd">
<svg version="1.0" xmlns="http://www.w3.org/2000/svg"
 width="475.000000pt" height="470.000000pt" viewBox="0 0 475.000000 470.000000"
 preserveAspectRatio="xMidYMid meet">

<g transform="translate(0.000000,470.000000) scale(0.100000,-0.100000)"
fill="#000000" stroke="none">
<path d="M1324 4395 c-349 -62 -648 -296 -786 -618 -66 -152 -82 -237 -82
-422 1 -138 4 -173 26 -255 14 -52 39 -126 56 -163 l31 -68 -74 -212 c-41
-116 -75 -217 -75 -223 0 -6 9 -19 20 -29 20 -18 26 -17 236 40 211 57 217 58
242 41 70 -45 240 -119 324 -140 369 -94 742 14 1010 292 261 271 356 651 252
1009 -128 443 -514 743 -974 758 -82 3 -153 -1 -206 -10z m692 -549 c18 -25
18 -47 0 -72 -14 -18 -31 -19 -491 -19 -465 0 -477 0 -491 20 -21 29 -14 67
16 82 19 10 129 12 488 11 446 -3 464 -4 478 -22z m-300 -300 c18 -25 18 -47
0 -72 -14 -18 -29 -19 -341 -19 -315 0 -327 1 -341 20 -8 11 -14 31 -12 45 6
47 28 50 366 48 297 -3 314 -4 328 -22z m300 -300 c18 -25 18 -47 0 -72 -14
-18 -31 -19 -491 -19 -465 0 -477 0 -491 20 -21 29 -14 67 16 82 19 10 129 12
488 11 446 -3 464 -4 478 -22z m-300 -300 c18 -25 18 -47 0 -72 -14 -18 -29
-19 -341 -19 -315 0 -327 1 -341 20 -8 11 -14 31 -12 45 6 47 28 50 366 48
297 -3 314 -4 328 -22z"/>
<path d="M2470 4148 l0 -55 94 -6 c350 -23 714 -181 947 -410 201 -198 319
-446 360 -760 6 -49 9 -91 6 -94 -3 -3 -64 52 -136 121 -72 69 -136 126 -143
126 -40 0 -72 -55 -50 -85 4 -5 86 -88 183 -182 147 -144 181 -173 205 -173
25 0 56 28 207 184 150 157 177 189 177 215 0 30 -22 51 -54 51 -8 0 -73 -59
-144 -132 l-130 -132 -6 49 c-48 370 -139 596 -335 823 -238 277 -667 477
-1088 508 l-93 7 0 -55z"/>
<path d="M2978 2715 c-225 -37 -431 -144 -600 -311 -141 -140 -241 -313 -294
-509 -25 -91 -27 -115 -28 -280 0 -163 3 -189 26 -276 90 -331 295 -584 593
-730 143 -70 260 -99 421 -106 150 -7 258 6 379 44 78 25 215 88 265 123 24
17 30 16 220 -36 107 -30 209 -54 228 -54 21 0 41 8 57 24 46 46 44 64 -35
294 l-73 212 32 80 c98 248 107 530 25 775 -122 365 -413 637 -783 731 -122
32 -307 40 -433 19z m387 -54 c198 -41 362 -129 513 -275 189 -183 293 -395
323 -661 20 -177 -13 -385 -86 -550 l-25 -58 75 -219 c64 -186 73 -222 63
-243 -6 -13 -18 -27 -27 -30 -9 -4 -112 20 -229 51 -209 57 -214 58 -240 40
-74 -48 -237 -119 -325 -141 -552 -139 -1111 186 -1272 740 -74 255 -49 526
69 770 65 133 126 214 238 320 136 128 310 219 493 258 103 22 318 21 430 -2z"/>
<path d="M2800 1625 l0 -735 475 0 475 0 0 238 0 239 -142 6 c-79 4 -182 7
-230 7 l-88 0 0 490 0 490 -245 0 -245 0 0 -735z m225 488 c4 -120 5 -395 1
-610 l-6 -393 350 0 350 0 0 -95 0 -95 -450 0 -450 0 0 705 0 705 99 0 99 0 7
-217z"/>
<path d="M403 1963 c-195 -201 -209 -224 -161 -257 12 -9 27 -16 32 -16 5 0
69 59 142 131 l133 132 5 -34 c3 -19 8 -56 11 -84 45 -384 232 -714 534 -941
162 -121 420 -235 642 -283 79 -17 265 -41 315 -41 10 0 14 14 14 54 l0 53
-85 7 c-209 16 -412 73 -610 171 -425 211 -658 558 -709 1053 l-5 53 132 -126
c98 -93 139 -125 157 -125 33 0 50 17 50 51 0 22 -35 60 -189 208 -104 100
-198 181 -208 181 -10 0 -94 -78 -200 -187z"/>
</g>
</svg>
